<svg id="visual" viewBox="0 0 900 600" width="900" height="600" xmlns="http://www.w3.org/2000/svg" xmlns:xlink="http://www.w3.org/1999/xlink" version="1.1"><rect x="0" y="0" width="900" height="600" fill="#041E32"></rect><path d="M0 387L18.8 389.8C37.7 392.7 75.3 398.3 112.8 404.3C150.3 410.3 187.7 416.7 225.2 420.3C262.7 424 300.3 425 337.8 409.7C375.3 394.3 412.7 362.7 450.2 359.2C487.7 355.7 525.3 380.3 562.8 396.2C600.3 412 637.7 419 675.2 416C712.7 413 750.3 400 787.8 395C825.3 390 862.7 393 881.3 394.5L900 396L900 0L881.3 0C862.7 0 825.3 0 787.8 0C750.3 0 712.7 0 675.2 0C637.7 0 600.3 0 562.8 0C525.3 0 487.7 0 450.2 0C412.7 0 375.3 0 337.8 0C300.3 0 262.7 0 225.2 0C187.7 0 150.3 0 112.8 0C75.3 0 37.7 0 18.8 0L0 0Z" fill="#23b935"></path><path d="M0 256L18.8 271C37.7 286 75.3 316 112.8 315.2C150.3 314.3 187.7 282.7 225.2 267.3C262.7 252 300.3 253 337.8 266.3C375.3 279.7 412.7 305.3 450.2 313.2C487.7 321 525.3 311 562.8 298.7C600.3 286.3 637.7 271.7 675.2 279.8C712.7 288 750.3 319 787.8 332.8C825.3 346.7 862.7 343.3 881.3 341.7L900 340L900 0L881.3 0C862.7 0 825.3 0 787.8 0C750.3 0 712.7 0 675.2 0C637.7 0 600.3 0 562.8 0C525.3 0 487.7 0 450.2 0C412.7 0 375.3 0 337.8 0C300.3 0 262.7 0 225.2 0C187.7 0 150.3 0 112.8 0C75.3 0 37.7 0 18.8 0L0 0Z" fill="#28ca31"></path><path d="M0 213L18.8 223.2C37.7 233.3 75.3 253.7 112.8 264.2C150.3 274.7 187.7 275.3 225.2 273.8C262.7 272.3 300.3 268.7 337.8 262C375.3 255.3 412.7 245.7 450.2 237C487.7 228.3 525.3 220.7 562.8 221.5C600.3 222.3 637.7 231.7 675.2 239C712.7 246.3 750.3 251.7 787.8 253.5C825.3 255.3 862.7 253.7 881.3 252.8L900 252L900 0L881.3 0C862.7 0 825.3 0 787.8 0C750.3 0 712.7 0 675.2 0C637.7 0 600.3 0 562.8 0C525.3 0 487.7 0 450.2 0C412.7 0 375.3 0 337.8 0C300.3 0 262.7 0 225.2 0C187.7 0 150.3 0 112.8 0C75.3 0 37.7 0 18.8 0L0 0Z" fill="#30dc2a"></path><path d="M0 179L18.8 181.8C37.7 184.7 75.3 190.3 112.8 188.8C150.3 187.3 187.7 178.7 225.2 176.5C262.7 174.3 300.3 178.7 337.8 183C375.3 187.3 412.7 191.7 450.2 185.3C487.7 179 525.3 162 562.8 156.5C600.3 151 637.7 157 675.2 163.3C712.7 169.7 750.3 176.3 787.8 176C825.3 175.7 862.7 168.3 881.3 164.7L900 161L900 0L881.3 0C862.7 0 825.3 0 787.8 0C750.3 0 712.7 0 675.2 0C637.7 0 600.3 0 562.8 0C525.3 0 487.7 0 450.2 0C412.7 0 375.3 0 337.8 0C300.3 0 262.7 0 225.2 0C187.7 0 150.3 0 112.8 0C75.3 0 37.7 0 18.8 0L0 0Z" fill="#3aed1e"></path><path d="M0 85L18.8 79.8C37.7 74.7 75.3 64.3 112.8 59.2C150.3 54 187.7 54 225.2 61.3C262.7 68.7 300.3 83.3 337.8 86C375.3 88.7 412.7 79.3 450.2 72C487.7 64.7 525.3 59.3 562.8 57.3C600.3 55.3 637.7 56.7 675.2 68.2C712.7 79.7 750.3 101.3 787.8 102.8C825.3 104.3 862.7 85.7 881.3 76.3L900 67L900 0L881.3 0C862.7 0 825.3 0 787.8 0C750.3 0 712.7 0 675.2 0C637.7 0 600.3 0 562.8 0C525.3 0 487.7 0 450.2 0C412.7 0 375.3 0 337.8 0C300.3 0 262.7 0 225.2 0C187.7 0 150.3 0 112.8 0C75.3 0 37.7 0 18.8 0L0 0Z" fill="#46ff00"></path></svg>