<svg id="visual" viewBox="0 0 900 600" width="900" height="600" xmlns="http://www.w3.org/2000/svg" xmlns:xlink="http://www.w3.org/1999/xlink" version="1.1"><rect x="0" y="0" width="900" height="600" fill="#041e32"></rect><path d="M0 265L18.8 252C37.7 239 75.3 213 112.8 199.2C150.3 185.3 187.7 183.7 225.2 183.3C262.7 183 300.3 184 337.8 195C375.3 206 412.7 227 450.2 237C487.7 247 525.3 246 562.8 235.7C600.3 225.3 637.7 205.7 675.2 200.5C712.7 195.3 750.3 204.7 787.8 220C825.3 235.3 862.7 256.7 881.3 267.3L900 278L900 601L881.3 601C862.7 601 825.3 601 787.8 601C750.3 601 712.7 601 675.2 601C637.7 601 600.3 601 562.8 601C525.3 601 487.7 601 450.2 601C412.7 601 375.3 601 337.8 601C300.3 601 262.7 601 225.2 601C187.7 601 150.3 601 112.8 601C75.3 601 37.7 601 18.8 601L0 601Z" fill="#23b935"></path><path d="M0 339L18.8 329C37.7 319 75.3 299 112.8 285.8C150.3 272.7 187.7 266.3 225.2 271.7C262.7 277 300.3 294 337.8 297.7C375.3 301.3 412.7 291.7 450.2 288.5C487.7 285.3 525.3 288.7 562.8 284.2C600.3 279.7 637.7 267.3 675.2 274.8C712.7 282.3 750.3 309.7 787.8 323.5C825.3 337.3 862.7 337.7 881.3 337.8L900 338L900 601L881.3 601C862.7 601 825.3 601 787.8 601C750.3 601 712.7 601 675.2 601C637.7 601 600.3 601 562.8 601C525.3 601 487.7 601 450.2 601C412.7 601 375.3 601 337.8 601C300.3 601 262.7 601 225.2 601C187.7 601 150.3 601 112.8 601C75.3 601 37.7 601 18.8 601L0 601Z" fill="#28ca31"></path><path d="M0 367L18.8 371C37.7 375 75.3 383 112.8 383.8C150.3 384.7 187.7 378.3 225.2 374.8C262.7 371.3 300.3 370.7 337.8 370.7C375.3 370.7 412.7 371.3 450.2 372C487.7 372.7 525.3 373.3 562.8 374.7C600.3 376 637.7 378 675.2 380.3C712.7 382.7 750.3 385.3 787.8 385C825.3 384.7 862.7 381.3 881.3 379.7L900 378L900 601L881.3 601C862.7 601 825.3 601 787.8 601C750.3 601 712.7 601 675.2 601C637.7 601 600.3 601 562.8 601C525.3 601 487.7 601 450.2 601C412.7 601 375.3 601 337.8 601C300.3 601 262.7 601 225.2 601C187.7 601 150.3 601 112.8 601C75.3 601 37.7 601 18.8 601L0 601Z" fill="#30dc2a"></path><path d="M0 398L18.8 404.2C37.7 410.3 75.3 422.7 112.8 436.3C150.3 450 187.7 465 225.2 462.5C262.7 460 300.3 440 337.8 427.7C375.3 415.3 412.7 410.7 450.2 411.2C487.7 411.7 525.3 417.3 562.8 419.8C600.3 422.3 637.7 421.7 675.2 425.7C712.7 429.7 750.3 438.3 787.8 448C825.3 457.7 862.7 468.3 881.3 473.7L900 479L900 601L881.3 601C862.7 601 825.3 601 787.8 601C750.3 601 712.7 601 675.2 601C637.7 601 600.3 601 562.8 601C525.3 601 487.7 601 450.2 601C412.7 601 375.3 601 337.8 601C300.3 601 262.7 601 225.2 601C187.7 601 150.3 601 112.8 601C75.3 601 37.7 601 18.8 601L0 601Z" fill="#3aed1e"></path><path d="M0 542L18.8 536.5C37.7 531 75.3 520 112.8 515.8C150.3 511.7 187.7 514.3 225.2 510.2C262.7 506 300.3 495 337.8 497.2C375.3 499.3 412.7 514.7 450.2 518.8C487.7 523 525.3 516 562.8 514.8C600.3 513.7 637.7 518.3 675.2 518.8C712.7 519.3 750.3 515.7 787.8 517.3C825.3 519 862.7 526 881.3 529.5L900 533L900 601L881.3 601C862.7 601 825.3 601 787.8 601C750.3 601 712.7 601 675.2 601C637.7 601 600.3 601 562.8 601C525.3 601 487.7 601 450.2 601C412.7 601 375.3 601 337.8 601C300.3 601 262.7 601 225.2 601C187.7 601 150.3 601 112.8 601C75.3 601 37.7 601 18.8 601L0 601Z" fill="#46ff00"></path></svg>